HIERARCHY
ROOT Hips
{
	OFFSET 0.000000 0.000000 0.000000
	CHANNELS 6 Xposition Yposition Zposition Zrotation Yrotation Xrotation 
	JOINT LHipJoint
	{
		OFFSET 0.000000 0.000000 0.000000
		CHANNELS 3 Zrotation Yrotation Xrotation
		JOINT LeftUpLeg
		{
			OFFSET 1.363060 -1.794630 0.839290
			CHANNELS 3 Zrotation Yrotation Xrotation
			JOINT LeftLeg
			{
				OFFSET 2.448110 -6.726130 0.000000
				CHANNELS 3 Zrotation Yrotation Xrotation
				JOINT LeftFoot
				{
					OFFSET 2.562200 -7.039590 0.000000
					CHANNELS 3 Zrotation Yrotation Xrotation
					JOINT LeftToeBase
					{
						OFFSET 0.157640 -0.433110 2.322550
						CHANNELS 3 Zrotation Yrotation Xrotation
						End Site
						{
							OFFSET 0.000000 0.000000 0.000000
						}
					}
				}
			}
		}
	}
	JOINT RHipJoint
	{
		OFFSET 0.000000 0.000000 0.000000
		CHANNELS 3 Zrotation Yrotation Xrotation
		JOINT RightUpLeg
		{
			OFFSET -1.305520 -1.794630 0.839290
			CHANNELS 3 Zrotation Yrotation Xrotation
			JOINT RightLeg
			{
				OFFSET -2.542530 -6.985550 0.000000
				CHANNELS 3 Zrotation Yrotation Xrotation
				JOINT RightFoot
				{
					OFFSET -2.568260 -7.056230 0.000000
					CHANNELS 3 Zrotation Yrotation Xrotation
					JOINT RightToeBase
					{
						OFFSET -0.164730 -0.452590 2.363150
						CHANNELS 3 Zrotation Yrotation Xrotation
						End Site
						{
							OFFSET 0.000000 0.000000 0.000000
						}
					}
				}
			}
		}
	}
	JOINT LowerBack
	{
		OFFSET 0.000000 0.000000 0.000000
		CHANNELS 3 Zrotation Yrotation Xrotation
		JOINT Spine
		{
			OFFSET 0.028270 2.035590 -0.193380
			CHANNELS 3 Zrotation Yrotation Xrotation
			JOINT Spine1
			{
				OFFSET 0.056720 2.048850 -0.042750
				CHANNELS 3 Zrotation Yrotation Xrotation
				JOINT Neck
				{
					OFFSET 0.000000 0.000000 0.000000
					CHANNELS 3 Zrotation Yrotation Xrotation
					JOINT Neck1
					{
						OFFSET -0.054170 1.746240 0.172020
						CHANNELS 3 Zrotation Yrotation Xrotation
						JOINT Head
						{
							OFFSET 0.104070 1.761360 -0.123970
							CHANNELS 3 Zrotation Yrotation Xrotation
							End Site
							{
								OFFSET 0.000000 0.000000 0.000000
							}
						}
					}
				}
				JOINT LeftShoulder
				{
					OFFSET 0.000000 0.000000 0.000000
					CHANNELS 3 Zrotation Yrotation Xrotation
					JOINT LeftArm
					{
						OFFSET 3.362410 1.200890 -0.311210
						CHANNELS 3 Zrotation Yrotation Xrotation
						JOINT LeftForeArm
						{
							OFFSET 4.983000 -0.000000 -0.000000
							CHANNELS 3 Zrotation Yrotation Xrotation
							JOINT LeftHand
							{
								OFFSET 3.483560 -0.000000 -0.000000
								CHANNELS 3 Zrotation Yrotation Xrotation
								JOINT LeftFingerBase
								{
									OFFSET 0.000000 0.000000 0.000000
									CHANNELS 3 Zrotation Yrotation Xrotation
									JOINT LeftHandIndex1
									{
										OFFSET 0.715260 -0.000000 -0.000000
										CHANNELS 3 Zrotation Yrotation Xrotation
										End Site
										{
											OFFSET 0.000000 0.000000 0.000000
										}
									}
								}
								JOINT LThumb
								{
									OFFSET 0.000000 0.000000 0.000000
									CHANNELS 3 Zrotation Yrotation Xrotation
									End Site
									{
										OFFSET 0.000000 0.000000 0.000000
									}
								}
							}
						}
					}
				}
				JOINT RightShoulder
				{
					OFFSET 0.000000 0.000000 0.000000
					CHANNELS 3 Zrotation Yrotation Xrotation
					JOINT RightArm
					{
						OFFSET -3.136600 1.374050 -0.404650
						CHANNELS 3 Zrotation Yrotation Xrotation
						JOINT RightForeArm
						{
							OFFSET -5.241900 -0.000000 -0.000000
							CHANNELS 3 Zrotation Yrotation Xrotation
							JOINT RightHand
							{
								OFFSET -3.444170 -0.000000 -0.000000
								CHANNELS 3 Zrotation Yrotation Xrotation
								JOINT RightFingerBase
								{
									OFFSET 0.000000 0.000000 0.000000
									CHANNELS 3 Zrotation Yrotation Xrotation
									JOINT RightHandIndex1
									{
										OFFSET -0.622530 -0.000000 -0.000000
										CHANNELS 3 Zrotation Yrotation Xrotation
										End Site
										{
											OFFSET 0.000000 0.000000 0.000000
										}
									}
								}
								JOINT RThumb
								{
									OFFSET 0.000000 0.000000 0.000000
									CHANNELS 3 Zrotation Yrotation Xrotation
									End Site
									{
										OFFSET 0.000000 0.000000 0.000000
									}
								}
							}
						}
					}
				}
			}
		}
	}
}
MOTION
Frames: 4
Frame Time: 0.008333
-2.093256 14.981301 5.782575 -9.276263 -21.429061 17.710911 11.386218 3.405755 -4.911379 -10.836546 4.151702 1.897992 5.544650 12.809109 44.936739 2.007046 1.655020 -25.986095 3.917000 -12.049100 -35.906000 -14.910402 -2.293971 -0.472426 25.075347 33.925569 -54.596027 -4.854023 -22.863521 53.343740 -0.211864 14.154542 -6.365692 -0.006900 -0.537100 1.475900 -6.186248 -4.229615 12.027018 1.313179 -5.849998 -4.169750 -2.357186 -2.814323 -6.080519 17.793640 12.204261 -4.898959 8.832504 12.966792 14.236645 -3.660300 8.938400 11.671800 9.941861 -7.496951 1.851096 -47.022816 -49.305751 4.450905 46.476170 -45.813480 -15.630073 -0.063709 5.248609 1.796527 14.058525 34.763470 7.198800 -7.125000 0.000000 0.000000 -18.679500 59.048900 -6.555700 -6.092315 10.657713 3.077735 84.252229 43.577722 54.037572 -150.065470 30.939250 -110.301691 -0.712832 -0.800847 -37.928942 -14.779860 -3.850364 0.895100 7.125000 0.000000 0.000000 10.523700 -33.614800 2.980700 
-2.091120 14.955875 5.763666 -9.523900 -21.413174 17.478350 11.324293 3.383839 -4.890289 -10.042184 4.404728 1.362269 5.866424 13.093030 46.163689 2.028355 0.481941 -25.467701 3.980500 -12.134400 -36.208900 -14.920729 -2.317548 -0.489167 25.693013 33.623119 -54.306045 -4.895352 -22.877597 53.490150 -0.193943 14.484694 -6.257574 -0.009600 -0.633200 1.740000 -6.036297 -4.577109 12.655761 1.421833 -6.358307 -4.163105 -2.029096 -3.020854 -6.250127 17.522162 12.557033 -4.694568 8.593924 13.471040 14.085187 -3.791900 9.113600 11.619600 10.135924 -7.276765 1.986391 -45.458743 -50.870683 0.047864 39.654480 -41.669463 -11.732505 0.335346 5.429137 5.779443 13.894971 33.698415 6.832900 -7.125000 0.000000 0.000000 -18.025400 57.829300 -5.784300 -6.067142 10.435788 3.167952 83.933696 44.067644 54.310586 -149.918879 31.007887 -110.226842 -0.719375 -0.795673 -37.690508 -14.696773 -3.885836 0.898900 7.125000 0.000000 0.000000 10.597000 -33.651500 2.992500 
-2.086740 14.930770 5.748282 -9.762050 -21.337600 17.303646 11.265183 3.362267 -4.868933 -9.262599 4.620334 0.832846 6.159984 13.342542 47.258893 2.050074 -0.698323 -24.975953 4.053800 -12.231700 -36.556500 -14.926550 -2.342877 -0.508371 26.241318 33.282100 -54.104895 -4.945641 -22.900603 53.662091 -0.179434 14.790984 -6.187617 -0.011700 -0.698900 1.920700 -5.788529 -4.871366 13.212509 1.523157 -6.774865 -4.157179 -1.741647 -3.190965 -6.368832 17.183778 12.835194 -4.584262 8.318847 13.886509 13.902013 -3.930900 9.235600 11.535700 10.276190 -7.086664 2.193526 -44.206946 -52.016891 -4.379423 35.200201 -38.486099 -9.472809 0.713816 5.460018 9.005659 13.952078 32.356886 6.514200 -7.125000 0.000000 0.000000 -17.177000 56.492700 -4.941600 -6.030944 10.223700 3.238315 83.548166 44.627859 54.496038 -149.791201 31.048440 -110.167603 -0.729207 -0.791622 -37.496082 -14.673276 -3.944237 0.912600 7.125000 0.000000 0.000000 10.628700 -33.715700 2.984900 
-2.081078 14.914959 5.738561 -9.963217 -21.248463 17.194432 11.213266 3.344909 -4.847621 -8.564338 4.825748 0.318279 6.414438 13.555826 48.193005 2.067726 -1.832859 -24.512139 4.134400 -12.337100 -36.935300 -14.928364 -2.363577 -0.530309 26.688906 32.943545 -53.968386 -5.001730 -22.929070 53.846094 -0.170168 15.070720 -6.182885 -0.012900 -0.732000 2.011700 -5.480276 -5.126240 13.668650 1.612342 -7.114172 -4.148896 -1.510901 -3.339545 -6.416599 16.815242 13.055591 -4.586894 8.013083 14.232133 13.704344 -4.071600 9.317800 11.448600 10.361385 -6.972779 2.408417 -43.258963 -52.504911 -8.240521 32.848394 -36.710825 -8.368502 0.973289 5.390466 10.750680 14.186272 31.017805 6.275500 -7.125000 0.000000 0.000000 -16.319300 55.266800 -4.195200 -5.983670 10.062682 3.299151 83.162285 45.257181 54.673855 -149.695090 31.055584 -110.130224 -0.741672 -0.787119 -37.300824 -14.707749 -4.005485 0.931400 7.125000 0.000000 0.000000 10.615900 -33.787000 2.962600 
